<svg xmlns="http://www.w3.org/2000/svg" xmlns:xlink="http://www.w3.org/1999/xlink" width="2000" zoomAndPan="magnify" viewBox="0 0 1500 1499.999933" height="2000" preserveAspectRatio="xMidYMid meet" version="1.0"><path fill="#32261b" d="M 366.25 351.25 C 410.203125 351.210938 454.148438 351.1875 498.09375 351.179688 L 500.890625 351.179688 C 515.855469 351.175781 530.820312 351.164062 545.785156 351.152344 C 561.128906 351.140625 576.472656 351.136719 591.820312 351.132812 C 601.292969 351.128906 610.769531 351.125 620.246094 351.113281 C 627.5 351.109375 634.753906 351.105469 642.007812 351.109375 C 644.992188 351.109375 647.976562 351.105469 650.960938 351.101562 C 655.015625 351.097656 659.074219 351.09375 663.128906 351.101562 L 666.757812 351.085938 C 669.507812 351.09375 672.253906 351.164062 675 351.25 L 676.25 352.5 C 676.503906 355.269531 676.503906 355.269531 676.5625 358.671875 L 676.660156 362.066406 L 676.25 365 C 671.40625 368.230469 666.363281 369.191406 660.78125 370.515625 C 655.730469 371.777344 651.921875 373.582031 647.5 376.25 L 642.5 376.25 L 641.25 380 C 639.246094 381.796875 639.246094 381.796875 636.71875 383.75 C 630.492188 389.011719 626.292969 395.324219 622.5 402.5 C 621.628906 405.253906 621.628906 405.253906 621.25 407.5 L 618.75 407.5 L 618.519531 410.605469 L 618.203125 414.6875 L 617.894531 418.730469 C 617.5 422.5 617.5 422.5 616.875 424.851562 C 609.699219 455.277344 614.835938 492.929688 614.875 523.964844 C 614.882812 531.714844 614.882812 539.464844 614.882812 547.21875 C 614.886719 561.835938 614.894531 576.449219 614.910156 591.066406 C 614.917969 602.75 614.925781 614.429688 614.929688 626.113281 L 614.929688 628.617188 L 614.9375 641.066406 C 614.949219 675.292969 614.972656 709.523438 615 743.75 C 620.183594 741.773438 625.367188 739.796875 630.546875 737.8125 L 634.957031 736.132812 C 642.183594 733.363281 649.34375 730.539062 656.375 727.304688 C 660.539062 725.453125 664.835938 723.980469 669.140625 722.5 L 671.933594 721.523438 C 678.359375 719.292969 684.804688 717.113281 691.265625 714.984375 C 693.902344 714.113281 696.535156 713.222656 699.164062 712.320312 C 711.605469 708.074219 724.179688 704.421875 736.835938 700.886719 C 739.652344 700.097656 742.464844 699.296875 745.273438 698.488281 C 779.003906 688.839844 813.011719 681.3125 847.5 675 L 851.953125 674.179688 C 855.78125 673.480469 859.609375 672.789062 863.4375 672.109375 L 866.558594 671.550781 C 873.242188 670.402344 879.941406 669.511719 886.667969 668.683594 L 889.464844 668.339844 C 891.726562 668.058594 893.988281 667.777344 896.25 667.5 C 896.308594 637.878906 896.351562 608.257812 896.378906 578.636719 C 896.390625 564.878906 896.410156 551.125 896.4375 537.371094 C 896.464844 525.371094 896.480469 513.375 896.484375 501.378906 C 896.488281 495.03125 896.496094 488.6875 896.511719 482.339844 C 896.53125 476.355469 896.535156 470.367188 896.53125 464.375 C 896.53125 462.191406 896.539062 460.011719 896.546875 457.828125 C 896.742188 426.175781 896.742188 426.175781 886.875 396.574219 C 880.648438 387.089844 872.800781 379.371094 862.734375 374.0625 C 855.792969 370.835938 848.554688 368.496094 841.25 366.25 C 841.21875 363.984375 841.191406 361.71875 841.171875 359.453125 L 841.128906 355.628906 L 841.25 352.5 L 842.5 351.25 C 846.210938 351.125 849.890625 351.082031 853.605469 351.089844 L 857.179688 351.085938 C 861.160156 351.078125 865.144531 351.085938 869.128906 351.089844 L 877.65625 351.082031 C 885.402344 351.078125 893.148438 351.078125 900.890625 351.082031 C 908.980469 351.085938 917.0625 351.082031 925.148438 351.082031 C 939.601562 351.078125 954.054688 351.082031 968.507812 351.089844 C 981.621094 351.09375 994.738281 351.09375 1007.855469 351.085938 C 1023.070312 351.078125 1038.285156 351.078125 1053.5 351.082031 C 1061.558594 351.082031 1069.621094 351.082031 1077.679688 351.078125 C 1085.257812 351.078125 1092.832031 351.078125 1100.40625 351.085938 C 1103.195312 351.085938 1105.984375 351.085938 1108.777344 351.082031 C 1112.566406 351.082031 1116.355469 351.085938 1120.144531 351.089844 L 1123.539062 351.082031 C 1126.109375 351.089844 1128.679688 351.164062 1131.25 351.25 L 1132.5 352.5 C 1132.589844 354.605469 1132.605469 356.71875 1132.578125 358.828125 L 1132.542969 362.308594 L 1132.5 365 C 1127.011719 366.945312 1121.6875 368.726562 1115.9375 369.6875 C 1105.78125 371.839844 1096.164062 377.675781 1088.203125 384.21875 C 1081.832031 390.238281 1077.015625 397.167969 1074.140625 405.46875 C 1073.578125 407.390625 1073.03125 409.316406 1072.5 411.25 L 1071.445312 414.53125 C 1069.308594 421.492188 1068.449219 427.558594 1068.710938 434.824219 C 1068.753906 439.039062 1068.472656 443.148438 1068.140625 447.351562 C 1067.421875 457.269531 1067.339844 467.160156 1067.378906 477.105469 L 1067.382812 482.488281 C 1067.386719 487.144531 1067.398438 491.796875 1067.414062 496.449219 C 1067.425781 501.230469 1067.433594 506.007812 1067.4375 510.785156 C 1067.453125 520.105469 1067.472656 529.425781 1067.5 538.75 C 1063.476562 539.648438 1059.792969 540.144531 1055.671875 540.082031 L 1052.445312 540.042969 L 1049.003906 539.988281 L 1041.699219 539.925781 C 1037.882812 539.890625 1034.070312 539.84375 1030.253906 539.785156 C 1026.554688 539.730469 1022.859375 539.703125 1019.160156 539.675781 L 1015.75 539.605469 C 1002.421875 539.554688 991.496094 544.84375 980 551.25 C 975.953125 553.667969 973.214844 556.335938 970.710938 560.40625 C 967.75 566.003906 965.503906 571.105469 965 577.5 L 967.5 577.5 L 967.910156 579.722656 C 968.855469 582.839844 970.058594 584.503906 972.1875 586.953125 L 974.042969 589.144531 C 979.355469 594.210938 985.691406 596.300781 992.5 598.59375 C 995.347656 599.574219 998.191406 600.554688 1001.035156 601.542969 C 1010.414062 604.835938 1019.652344 608.488281 1028.75 612.5 L 1028.75 615 L 1022.035156 618.664062 L 1020 620 L 1018.75 622.5 L 1015.859375 624.21875 C 1012.421875 626.054688 1012.421875 626.054688 1010.21875 628.929688 L 1007.5 631.25 C 1004.261719 631.242188 1004.261719 631.242188 1000.613281 630.371094 L 996.5625 629.46875 L 992.34375 628.4375 C 978.203125 624.964844 978.203125 624.964844 963.75 625 C 959.351562 626.5 959.351562 626.5 955.625 628.75 C 948.886719 632.5 948.886719 632.5 946.25 632.5 L 945 636.25 C 943.773438 637.523438 942.523438 638.773438 941.25 640 C 938.972656 644.554688 939.605469 649.722656 939.632812 654.730469 C 939.972656 658.425781 940.316406 660.339844 942.34375 663.359375 C 944.023438 665.191406 945.742188 666.988281 947.5 668.75 L 947.5 672.5 L 945.363281 672.898438 C 942.117188 673.511719 938.871094 674.140625 935.625 674.765625 L 932.265625 675.390625 C 926.21875 676.570312 920.675781 678.070312 914.964844 680.359375 C 911.4375 681.632812 907.847656 682.328125 904.183594 683.089844 C 898.953125 684.265625 893.863281 685.910156 888.75 687.5 C 882.738281 689.367188 876.800781 691.183594 870.625 692.421875 C 865.558594 693.5 861.042969 695.269531 856.273438 697.261719 C 847.761719 700.621094 839 703.316406 830.3125 706.171875 C 804.644531 714.554688 804.644531 714.554688 779.496094 724.355469 C 774.625 726.394531 769.742188 728.40625 764.84375 730.382812 C 754.378906 734.636719 743.976562 738.945312 733.75 743.75 C 731.671875 744.722656 729.585938 745.683594 727.5 746.640625 L 724.84375 747.875 C 722.5 748.75 722.5 748.75 718.75 748.75 L 718.75 751.25 L 716.851562 751.902344 C 704.851562 756.359375 693.746094 762.699219 682.5 768.75 C 680.886719 769.613281 679.273438 770.472656 677.660156 771.332031 C 672.082031 774.320312 666.53125 777.308594 661.09375 780.546875 C 657.5 782.5 657.5 782.5 653.75 782.5 L 653.75 785 L 649.375 787.109375 C 644.664062 789.445312 640.308594 792.125 635.953125 795.058594 C 633.75 796.25 633.75 796.25 630 796.25 L 628.75 800 C 624.390625 802.820312 620.734375 804.769531 615.78125 806.328125 L 612.5 807.5 L 611.25 811.25 C 609.171875 812.089844 607.085938 812.925781 605 813.75 L 602.949219 815.863281 C 598.832031 819.890625 594.183594 822.984375 589.453125 826.25 C 587.578125 827.550781 585.703125 828.851562 583.832031 830.15625 L 581.164062 832.011719 C 579.105469 833.492188 577.136719 835.09375 575.191406 836.71875 L 572.5 838.75 L 568.75 838.75 L 567.910156 840.9375 C 565.742188 844.613281 563.171875 846.289062 559.6875 848.75 C 547.082031 857.867188 535.535156 868.289062 524.035156 878.738281 C 521.472656 881.050781 518.871094 883.300781 516.25 885.546875 C 510.113281 890.886719 504.457031 896.707031 498.75 902.5 L 492.5 908.75 L 490.285156 911.011719 C 486.777344 914.574219 483.261719 917.949219 479.375 921.09375 C 475.121094 924.667969 471.984375 928.730469 468.667969 933.164062 C 466.035156 936.523438 463.21875 939.613281 460.3125 942.734375 C 454.667969 948.828125 449.554688 955.214844 444.582031 961.867188 C 443.117188 963.792969 441.5625 965.652344 440 967.5 L 436.25 968.75 L 436.25 965.398438 C 436.3125 890.351562 436.335938 815.304688 436.320312 740.257812 C 436.324219 714.878906 436.335938 689.496094 436.347656 664.117188 C 436.359375 638.066406 436.363281 612.011719 436.367188 585.960938 C 436.371094 569.890625 436.375 553.824219 436.386719 537.753906 C 436.390625 526.726562 436.394531 515.699219 436.390625 504.671875 C 436.390625 498.316406 436.394531 491.960938 436.398438 485.601562 C 436.40625 479.769531 436.40625 473.941406 436.402344 468.109375 C 436.402344 466.011719 436.402344 463.910156 436.40625 461.8125 C 437.011719 428.199219 437.011719 428.199219 426.886719 396.683594 C 421.875 388.886719 415.847656 382.175781 407.742188 377.570312 C 398.867188 373.304688 389.65625 370.550781 380 368.75 L 376.246094 368.046875 C 372.917969 367.433594 369.582031 366.839844 366.25 366.25 Z M 1068.75 677.5 C 1071.496094 678.011719 1071.496094 678.011719 1073.75 678.75 L 1073.300781 681.921875 C 1069.175781 712.042969 1067.984375 741.679688 1067.988281 772.058594 C 1067.984375 778.339844 1067.953125 784.621094 1067.925781 790.898438 C 1067.875 802.828125 1067.851562 814.757812 1067.832031 826.683594 C 1067.8125 839.910156 1067.765625 853.132812 1067.714844 866.359375 C 1067.609375 894.351562 1067.550781 922.34375 1067.515625 950.335938 C 1067.503906 959.976562 1067.484375 969.617188 1067.460938 979.257812 C 1067.441406 988.246094 1067.425781 997.238281 1067.414062 1006.230469 C 1067.410156 1011.40625 1067.398438 1016.582031 1067.386719 1021.761719 C 1067.375 1026.492188 1067.371094 1031.222656 1067.367188 1035.953125 C 1067.367188 1038.484375 1067.359375 1041.019531 1067.351562 1043.550781 L 1067.355469 1048.054688 L 1067.347656 1051.964844 C 1067.296875 1055.011719 1067.296875 1055.011719 1068.75 1057.5 C 1068.871094 1059.761719 1068.914062 1062.03125 1068.90625 1064.296875 L 1068.917969 1067.964844 C 1068.75 1071.25 1068.75 1071.25 1067.5 1075 L 1070 1075 L 1070.53125 1078.261719 C 1072.875 1092.101562 1075.882812 1102.769531 1084.59375 1113.933594 C 1092.402344 1122.660156 1102.984375 1127.613281 1113.921875 1131.332031 C 1118.644531 1132.664062 1123.429688 1133.707031 1128.28125 1134.453125 L 1131.25 1135 C 1132.738281 1137.976562 1132.667969 1139.894531 1132.65625 1143.203125 L 1132.667969 1146.253906 L 1132.5 1148.75 L 1131.25 1150 C 1128.027344 1150.304688 1124.835938 1150.53125 1121.605469 1150.691406 L 1118.558594 1150.851562 C 1106.300781 1151.441406 1094.042969 1151.425781 1081.773438 1151.410156 L 1073.902344 1151.417969 C 1066.847656 1151.421875 1059.796875 1151.421875 1052.746094 1151.417969 C 1045.347656 1151.414062 1037.949219 1151.417969 1030.550781 1151.417969 C 1018.15625 1151.421875 1005.761719 1151.417969 993.367188 1151.414062 C 979.023438 1151.40625 964.679688 1151.40625 950.335938 1151.414062 C 938.003906 1151.421875 925.667969 1151.421875 913.332031 1151.417969 C 905.972656 1151.417969 898.613281 1151.417969 891.253906 1151.417969 C 884.355469 1151.421875 877.457031 1151.421875 870.558594 1151.414062 C 868.019531 1151.414062 865.484375 1151.414062 862.945312 1151.417969 C 859.5 1151.417969 856.054688 1151.414062 852.605469 1151.410156 L 849.523438 1151.417969 C 847.183594 1151.402344 844.839844 1151.34375 842.5 1151.25 L 841.25 1150 C 841.164062 1147.683594 841.140625 1145.367188 841.171875 1143.046875 L 841.207031 1139.214844 L 841.25 1136.25 L 844.6875 1134.765625 L 847.109375 1133.710938 C 849.203125 1132.835938 851.3125 1132.003906 853.4375 1131.210938 C 864.167969 1127.074219 873.984375 1122.085938 881.378906 1113.03125 C 891.703125 1097.628906 894.984375 1080.683594 896.25 1062.5 C 896.414062 1058.023438 896.441406 1053.554688 896.449219 1049.078125 L 896.464844 1045.207031 C 896.484375 1040.964844 896.496094 1036.722656 896.507812 1032.480469 L 896.542969 1023.3125 C 896.570312 1016.753906 896.59375 1010.195312 896.613281 1003.636719 C 896.644531 994.152344 896.675781 984.667969 896.714844 975.183594 C 896.773438 959.796875 896.828125 944.40625 896.878906 929.015625 C 896.929688 914.074219 896.980469 899.132812 897.035156 884.191406 L 897.046875 881.394531 L 897.097656 867.511719 C 897.238281 829.175781 897.371094 790.839844 897.5 752.5 C 899.085938 751.699219 900.671875 750.902344 902.257812 750.101562 L 904.929688 748.753906 C 908.277344 747.121094 911.691406 745.761719 915.175781 744.445312 L 919.496094 742.804688 L 924.0625 741.09375 L 926.421875 740.207031 C 931.355469 738.355469 936.292969 736.515625 941.230469 734.683594 C 943.75 733.75 946.261719 732.8125 948.777344 731.875 C 953.578125 730.082031 958.390625 728.320312 963.203125 726.5625 L 967.703125 724.886719 L 971.878906 723.378906 L 975.546875 722.039062 C 978.75 721.25 978.75 721.25 981.570312 721.570312 L 983.75 722.5 C 985.472656 725.226562 985.472656 725.226562 986.953125 728.59375 C 988.78125 732.703125 990.261719 735.847656 993.75 738.75 C 998.113281 740.828125 1001.867188 741.484375 1006.640625 741.25 C 1012.164062 740.371094 1016.476562 738.679688 1021.007812 735.382812 C 1028.878906 727.117188 1032.785156 715.289062 1036.601562 704.71875 C 1040.21875 694.851562 1040.21875 694.851562 1043.320312 691.542969 C 1045.882812 689.914062 1048.480469 688.75 1051.25 687.5 C 1052.710938 686.644531 1054.164062 685.773438 1055.605469 684.886719 L 1057.949219 683.464844 C 1059.503906 682.523438 1061.050781 681.574219 1062.59375 680.625 C 1064.785156 679.347656 1064.785156 679.347656 1068.75 677.5 " fill-opacity="1" fill-rule="nonzero"/><path fill="#cf4b1e" d="M 1222.5 520 C 1225.480469 521.65625 1225.480469 521.65625 1227.5 523.75 C 1228.203125 527.65625 1228.203125 527.65625 1227.5 532.5 C 1225.691406 536.433594 1223.570312 540.097656 1221.25 543.75 L 1218.75 543.75 L 1217.890625 546.484375 C 1210.667969 561.964844 1188.386719 574.574219 1175 585 L 1171.730469 587.558594 C 1169.515625 589.246094 1167.273438 590.894531 1165 592.5 L 1162.5 592.5 L 1162.5 595 L 1159.761719 597.386719 C 1154.628906 602.328125 1152.632812 609.042969 1150.078125 615.546875 C 1148.972656 618.28125 1147.867188 621.019531 1146.757812 623.753906 L 1145.171875 627.71875 C 1143.527344 631.785156 1141.828125 635.824219 1140.078125 639.84375 C 1135.996094 649.328125 1131.9375 658.828125 1127.90625 668.332031 C 1123.148438 679.609375 1118.574219 690.957031 1114.1875 702.378906 C 1111.675781 708.785156 1109.335938 714.625 1105 720 C 1101.953125 722.417969 1101.953125 722.417969 1098.75 724.296875 L 1095.546875 726.246094 L 1092.5 727.5 C 1089.808594 726.953125 1089.808594 726.953125 1087.5 726.25 L 1087.785156 723.3125 C 1088.671875 714.152344 1089.554688 704.996094 1090.433594 695.835938 C 1090.886719 691.128906 1091.339844 686.417969 1091.796875 681.710938 C 1092.234375 677.164062 1092.671875 672.617188 1093.109375 668.070312 L 1093.609375 662.878906 C 1093.847656 660.445312 1094.082031 658.011719 1094.3125 655.578125 L 1094.714844 651.390625 C 1094.992188 647.578125 1095.050781 643.820312 1095 640 C 1085.480469 645.117188 1076.109375 650.453125 1066.796875 655.9375 C 1056.515625 661.976562 1046.195312 667.90625 1035.667969 673.503906 C 1031.046875 676.007812 1027.019531 678.273438 1023.75 682.5 C 1022.214844 686.300781 1022.214844 686.300781 1021.171875 690.46875 C 1019.621094 696.144531 1017.699219 701.027344 1015 706.25 C 1013.683594 709.492188 1012.441406 712.761719 1011.207031 716.035156 C 1010 718.75 1010 718.75 1007.5 721.25 L 1003.75 721.25 L 1002.558594 716.691406 L 1000.9375 710.78125 L 1000.160156 707.773438 L 999.355469 704.890625 L 998.640625 702.234375 C 997.628906 699.828125 997.628906 699.828125 995.234375 698.394531 C 992.550781 697.335938 992.550781 697.335938 989.808594 697.632812 C 981.328125 699.539062 973.144531 702.046875 964.921875 704.84375 L 960.546875 706.320312 C 931.636719 716.15625 903.019531 726.597656 875 738.75 L 871.015625 740.464844 C 855.019531 747.355469 839.167969 754.386719 823.75 762.5 L 819.949219 764.492188 C 801.015625 774.4375 782.347656 784.722656 764.050781 795.804688 C 761.632812 797.265625 759.207031 798.71875 756.777344 800.160156 C 747.386719 805.8125 738.382812 811.960938 729.414062 818.261719 C 728.449219 818.9375 727.480469 819.609375 726.484375 820.300781 L 723.882812 822.132812 C 721.019531 823.890625 718.144531 825.085938 715 826.25 L 715 828.75 C 713.152344 830.152344 713.152344 830.152344 710.46875 831.796875 C 704.105469 835.867188 698.285156 840.484375 692.453125 845.269531 C 689.203125 847.886719 686.582031 849.867188 682.675781 851.425781 L 680 852.5 L 678.75 856.25 C 676.835938 857.949219 676.835938 857.949219 674.375 859.6875 C 669.40625 863.257812 664.621094 867.011719 659.855469 870.851562 L 657.5 872.5 L 655 872.5 L 654.0625 874.707031 C 652.269531 877.914062 650.277344 879.796875 647.5 882.1875 L 644.84375 884.511719 L 642.5 886.25 L 640 886.25 L 639.171875 888.359375 C 636.988281 892.132812 634.015625 894.660156 630.78125 897.5 C 623.050781 904.460938 615.636719 911.710938 608.28125 919.0625 L 605.085938 922.242188 C 599.667969 927.671875 594.4375 933.191406 589.4375 939.011719 C 587.691406 941.023438 585.90625 942.996094 584.078125 944.9375 C 576.421875 953.078125 569.480469 961.523438 562.785156 970.464844 C 560.765625 973.136719 558.695312 975.769531 556.628906 978.40625 C 550.273438 986.542969 544.394531 994.953125 538.597656 1003.496094 C 536.101562 1007.160156 533.558594 1010.792969 530.972656 1014.394531 L 528.941406 1017.230469 C 527.65625 1019.019531 526.367188 1020.804688 525.074219 1022.582031 C 521.582031 1027.457031 518.667969 1032.316406 516.140625 1037.761719 C 514.960938 1040.078125 513.59375 1042.066406 512.03125 1044.140625 C 507.785156 1049.910156 504.589844 1056.171875 501.25 1062.5 L 498.109375 1068.300781 C 490.429688 1082.59375 483.671875 1097.078125 477.480469 1112.074219 C 476.257812 1114.984375 474.972656 1117.859375 473.671875 1120.738281 C 470.957031 1126.796875 468.707031 1132.992188 466.5 1139.25 C 463.304688 1148.042969 463.304688 1148.042969 460 1151.25 C 456.808594 1151.730469 454.15625 1151.882812 450.96875 1151.816406 L 448.195312 1151.820312 C 445.171875 1151.816406 442.148438 1151.777344 439.125 1151.738281 C 437.03125 1151.730469 434.933594 1151.722656 432.835938 1151.714844 C 427.320312 1151.699219 421.800781 1151.648438 416.285156 1151.59375 C 410.652344 1151.542969 405.023438 1151.519531 399.390625 1151.492188 C 388.34375 1151.4375 377.296875 1151.355469 366.25 1151.25 C 367.082031 1144.679688 368.578125 1139.199219 371.328125 1133.203125 L 372.5 1130.589844 C 376.425781 1121.925781 380.6875 1113.4375 385.007812 1104.96875 C 386.207031 1102.578125 387.382812 1100.175781 388.535156 1097.761719 C 398.640625 1076.816406 410.824219 1056.820312 423.75 1037.5 L 425.277344 1035.210938 C 437.820312 1016.535156 450.859375 998.132812 465.617188 981.132812 C 468.589844 977.6875 471.449219 974.175781 474.296875 970.625 C 479.609375 964.09375 485.265625 957.933594 491.015625 951.792969 C 494.117188 948.476562 497.136719 945.09375 500.152344 941.699219 C 506.335938 934.8125 512.8125 928.25 519.367188 921.71875 C 521.332031 919.757812 523.296875 917.792969 525.257812 915.824219 C 532.039062 909.035156 538.933594 902.464844 546.25 896.25 C 547.738281 894.941406 549.226562 893.636719 550.710938 892.324219 C 560.402344 883.816406 570.351562 875.628906 580.5625 867.753906 C 582.386719 866.332031 584.203125 864.898438 586.007812 863.453125 L 589.0625 861.015625 L 591.660156 858.929688 L 593.75 857.5 L 596.25 857.5 L 596.25 855 C 597.964844 853.640625 597.964844 853.640625 600.546875 852.03125 C 605.253906 848.992188 609.882812 845.835938 614.433594 842.5625 C 633.164062 829.152344 652.390625 816.257812 672.5 805 C 674.695312 803.742188 676.886719 802.484375 679.082031 801.226562 C 692.191406 793.722656 705.34375 786.46875 718.933594 779.882812 C 721.253906 778.742188 723.5625 777.585938 725.863281 776.40625 C 794.96875 741.160156 870.132812 713.613281 945.308594 694.527344 L 948.253906 693.773438 C 952.996094 692.558594 957.742188 691.371094 962.5 690.226562 L 967.660156 688.925781 L 972.234375 687.8125 C 976.90625 685.996094 979.285156 683.804688 982.5 680 C 983.578125 677.285156 983.578125 677.285156 983.75 675 C 975.503906 667.398438 967.246094 659.824219 958.75 652.5 L 960 648.75 C 963.046875 646.5625 963.046875 646.5625 967.5 645 C 976.171875 645.027344 984.5 647.183594 992.8125 649.453125 C 1002.539062 652.421875 1002.539062 652.421875 1012.5 652.5 C 1015.714844 650.621094 1018.441406 648.292969 1021.25 645.859375 C 1022.917969 644.46875 1024.582031 643.082031 1026.25 641.695312 L 1028.785156 639.558594 C 1032.457031 636.492188 1036.226562 633.558594 1040 630.625 C 1041.425781 629.503906 1042.847656 628.386719 1044.273438 627.265625 C 1046.617188 625.421875 1048.964844 623.585938 1051.316406 621.753906 C 1053.929688 619.71875 1056.535156 617.671875 1059.140625 615.625 L 1061.613281 613.710938 C 1063.628906 612.121094 1065.570312 610.441406 1067.5 608.75 L 1068.75 605 L 1066.613281 604.40625 C 1057.285156 601.714844 1048.277344 598.332031 1039.21875 594.84375 C 1036.828125 593.929688 1034.441406 593.015625 1032.050781 592.105469 L 1027.195312 590.246094 C 1019.054688 587.140625 1010.898438 584.0625 1002.734375 581.015625 C 998.488281 579.425781 994.246094 577.835938 990 576.25 L 990 573.75 L 987.5 573.75 C 988.410156 571.457031 988.410156 571.457031 990 568.75 C 992.527344 566.9375 992.527344 566.9375 995.46875 565.390625 L 998.386719 563.8125 C 1002.800781 561.789062 1006.683594 561.09375 1011.519531 561.09375 L 1014.679688 561.082031 L 1018.113281 561.089844 L 1021.757812 561.082031 C 1024.367188 561.078125 1026.972656 561.074219 1029.582031 561.074219 C 1035.136719 561.070312 1040.695312 561.042969 1046.25 561.019531 C 1056.589844 560.972656 1066.929688 560.933594 1077.269531 560.9375 C 1084.464844 560.933594 1091.660156 560.910156 1098.855469 560.859375 C 1101.589844 560.847656 1104.328125 560.84375 1107.0625 560.851562 C 1110.902344 560.863281 1114.738281 560.839844 1118.578125 560.800781 L 1121.972656 560.839844 C 1127.941406 560.746094 1132.136719 559.886719 1137.40625 557.003906 C 1141.976562 554.203125 1146.320312 551.152344 1150.625 547.96875 C 1180.21875 526.464844 1180.21875 526.464844 1193.75 522.5 L 1196.386719 521.664062 C 1204.78125 519.382812 1213.882812 519 1222.5 520 " fill-opacity="1" fill-rule="nonzero"/><path fill="#32261b" d="M 612.5 953.75 L 615 953.75 L 615.03125 958.222656 C 615.128906 972.160156 615.238281 986.101562 615.359375 1000.039062 C 615.421875 1007.207031 615.480469 1014.371094 615.527344 1021.539062 C 615.574219 1028.460938 615.628906 1035.378906 615.699219 1042.300781 C 615.722656 1044.9375 615.738281 1047.570312 615.753906 1050.203125 C 615.773438 1053.910156 615.8125 1057.609375 615.851562 1061.316406 L 615.859375 1064.578125 C 615.949219 1071.199219 616.800781 1077.265625 618.339844 1083.707031 L 618.75 1086.25 L 617.5 1088.75 L 620 1088.75 L 621.25 1098.75 L 623.75 1098.75 L 625 1107.5 L 627.5 1107.5 L 627.5 1110 L 630 1110 C 631.300781 1111.46875 632.550781 1112.980469 633.75 1114.53125 C 640.464844 1122.386719 648.605469 1126.675781 658.203125 1130.234375 C 660.464844 1131.003906 662.730469 1131.757812 665 1132.5 L 668.367188 1133.636719 C 670.992188 1134.519531 673.621094 1135.386719 676.25 1136.25 L 676.25 1150 C 657.011719 1151.324219 637.820312 1151.417969 618.539062 1151.375 C 614.226562 1151.367188 609.910156 1151.367188 605.59375 1151.367188 C 597.460938 1151.363281 589.332031 1151.351562 581.199219 1151.339844 C 571.921875 1151.328125 562.648438 1151.316406 553.375 1151.3125 C 534.332031 1151.300781 515.289062 1151.277344 496.25 1151.25 C 499.96875 1132.125 509.210938 1113.757812 517.5 1096.25 L 518.9375 1093.199219 C 539.921875 1049.105469 567.453125 1008.003906 598.710938 970.550781 C 600.609375 968.261719 602.484375 965.953125 604.335938 963.628906 L 607.421875 959.765625 L 610.191406 956.273438 Z M 612.5 953.75 " fill-opacity="1" fill-rule="nonzero"/><path fill="#1b1007" d="M 1067.5 703.75 L 1070 703.75 L 1069.734375 707.007812 C 1068.75 720.195312 1068.535156 733.324219 1068.492188 746.542969 L 1068.457031 753.609375 C 1068.421875 759.941406 1068.394531 766.277344 1068.371094 772.609375 C 1068.34375 779.253906 1068.308594 785.894531 1068.277344 792.535156 C 1068.214844 805.085938 1068.15625 817.636719 1068.105469 830.1875 C 1068.039062 844.484375 1067.972656 858.78125 1067.902344 873.082031 C 1067.761719 902.46875 1067.628906 931.859375 1067.5 961.25 L 1065 960 C 1064.941406 929.171875 1064.898438 898.347656 1064.871094 867.519531 C 1064.859375 853.203125 1064.839844 838.890625 1064.8125 824.574219 C 1064.785156 812.089844 1064.769531 799.609375 1064.765625 787.128906 C 1064.761719 780.523438 1064.753906 773.917969 1064.734375 767.316406 C 1064.71875 761.085938 1064.714844 754.859375 1064.71875 748.632812 C 1064.71875 746.355469 1064.710938 744.082031 1064.703125 741.808594 C 1064.648438 728.859375 1065.203125 716.535156 1067.5 703.75 M 842.5 351.25 C 846.210938 351.125 849.890625 351.082031 853.605469 351.089844 L 857.179688 351.085938 C 861.160156 351.078125 865.144531 351.085938 869.128906 351.089844 L 877.65625 351.082031 C 885.402344 351.078125 893.148438 351.078125 900.890625 351.082031 C 908.980469 351.085938 917.0625 351.082031 925.148438 351.082031 C 939.601562 351.078125 954.054688 351.082031 968.507812 351.089844 C 981.621094 351.09375 994.738281 351.09375 1007.855469 351.085938 C 1023.070312 351.078125 1038.285156 351.078125 1053.5 351.082031 C 1061.558594 351.082031 1069.621094 351.082031 1077.679688 351.078125 C 1085.257812 351.078125 1092.832031 351.078125 1100.40625 351.085938 C 1103.195312 351.085938 1105.984375 351.085938 1108.777344 351.082031 C 1112.566406 351.082031 1116.355469 351.085938 1120.144531 351.089844 L 1123.539062 351.082031 C 1126.109375 351.089844 1128.679688 351.164062 1131.25 351.25 L 1132.5 352.5 C 1132.589844 354.605469 1132.605469 356.71875 1132.578125 358.828125 L 1132.542969 362.308594 L 1132.5 365 L 1125 367.5 L 1123.75 365 L 1126.25 365 C 1126.511719 359.824219 1126.511719 359.824219 1125 355 C 1111.980469 352.328125 1097.558594 353.582031 1084.316406 353.605469 L 1076.585938 353.605469 C 1069.632812 353.609375 1062.679688 353.613281 1055.726562 353.625 C 1048.441406 353.628906 1041.160156 353.632812 1033.878906 353.632812 C 1020.105469 353.636719 1006.335938 353.648438 992.5625 353.660156 C 976.878906 353.671875 961.191406 353.683594 945.503906 353.6875 C 913.253906 353.699219 881 353.722656 848.75 353.75 L 847.5 356.25 L 845 356.25 L 843.75 363.75 L 855 367.5 L 855 370 L 841.25 366.25 C 841.128906 355.628906 841.128906 355.628906 841.25 352.5 Z M 366.25 351.25 L 640 351.25 L 640 352.5 L 636.050781 352.515625 C 604.3125 352.644531 572.574219 352.78125 540.839844 352.921875 C 525.492188 352.996094 510.144531 353.058594 494.796875 353.121094 C 481.417969 353.175781 468.039062 353.234375 454.664062 353.296875 C 447.578125 353.328125 440.496094 353.359375 433.414062 353.386719 C 426.746094 353.410156 420.074219 353.441406 413.40625 353.476562 C 410.960938 353.488281 408.515625 353.496094 406.070312 353.503906 C 402.726562 353.515625 399.378906 353.53125 396.035156 353.550781 L 393.125 353.554688 C 383.371094 353.609375 383.371094 353.609375 373.75 355 L 371.25 357.5 C 371.042969 361.355469 371.042969 361.355469 371.25 365 L 377.5 366.25 L 377.5 367.5 L 366.25 366.25 Z M 366.25 351.25 " fill-opacity="1" fill-rule="nonzero"/><path fill="#1e1209" d="M 437.5 855 L 440 855 L 440 938.75 L 437.5 938.75 C 436.730469 921.511719 436.121094 904.289062 436.09375 887.03125 L 436.078125 882.96875 C 436.09375 873.597656 436.667969 864.332031 437.5 855 " fill-opacity="1" fill-rule="nonzero"/><path fill="#1b1007" d="M 531.25 867.5 L 533.75 867.5 C 532.464844 870.699219 531.265625 872.484375 528.65625 874.789062 L 525.390625 877.265625 C 515.761719 884.910156 507.339844 893.726562 498.75 902.5 C 495.183594 906.117188 491.617188 909.617188 487.734375 912.890625 L 485.445312 914.828125 L 483.75 916.25 L 482.5 913.75 C 484.398438 908.242188 488.828125 904.613281 493.121094 900.867188 C 495.121094 899.1875 497.125 897.519531 499.140625 895.859375 C 503.84375 891.9375 508.390625 888 512.65625 883.59375 C 518.394531 877.695312 524.589844 872.332031 531.25 867.5 " fill-opacity="1" fill-rule="nonzero"/><path fill="#1c1108" d="M 1120 1133.75 C 1121.851562 1133.894531 1123.699219 1134.050781 1125.546875 1134.21875 C 1126.574219 1134.304688 1127.605469 1134.394531 1128.667969 1134.480469 L 1131.25 1135 C 1132.738281 1137.976562 1132.667969 1139.894531 1132.65625 1143.203125 L 1132.667969 1146.253906 L 1132.5 1148.75 L 1131.25 1150 C 1129.574219 1150.195312 1127.890625 1150.3125 1126.207031 1150.394531 L 1123.140625 1150.554688 L 1119.921875 1150.703125 L 1116.6875 1150.867188 C 1114.042969 1151 1111.394531 1151.125 1108.75 1151.25 L 1107.5 1147.5 L 1123.75 1145 L 1125 1140 C 1124.09375 1137.25 1124.09375 1137.25 1122.5 1135 Z M 436.25 425 L 437.5 425 C 438.453125 430.394531 438.949219 434.679688 437.5 440 L 440 440 L 440 483.75 L 436.25 482.5 Z M 436.25 425 " fill-opacity="1" fill-rule="nonzero"/><path fill="#1b1007" d="M 437.5 940 L 440 940 L 440 957.5 L 446.25 956.25 C 445.929688 959.007812 445.191406 960.972656 443.613281 963.253906 C 442.078125 965.15625 440.417969 966.960938 438.75 968.75 L 436.25 968.75 C 436.113281 959.074219 436.285156 949.605469 437.5 940 M 668.75 1135 C 670.832031 1134.949219 672.917969 1134.949219 675 1135 L 676.25 1136.25 C 676.339844 1138.566406 676.355469 1140.886719 676.328125 1143.203125 L 676.292969 1147.035156 L 676.25 1150 C 673.648438 1150.066406 671.042969 1150.117188 668.4375 1150.15625 L 664.042969 1150.242188 C 660 1150 660 1150 655 1147.5 L 668.75 1146.25 L 671.25 1137.5 L 668.75 1137.5 Z M 503.75 1127.5 L 505 1131.25 L 503.75 1134.6875 C 502.285156 1139.453125 502.78125 1142.660156 503.75 1147.5 L 508.75 1148.75 L 508.75 1150 L 496.25 1151.25 C 497.140625 1145.894531 498.835938 1140.9375 500.703125 1135.859375 L 501.589844 1133.414062 C 502.304688 1131.441406 503.027344 1129.46875 503.75 1127.5 M 637.5 377.5 L 641.25 377.5 L 641.25 380 C 639.28125 381.851562 639.28125 381.851562 636.640625 383.984375 C 631.804688 388.074219 628.453125 392.210938 625 397.5 L 622.5 396.25 C 623.3125 394.574219 624.144531 392.90625 625 391.25 L 626.484375 388.28125 C 629.480469 383.941406 633.089844 380.417969 637.5 377.5 " fill-opacity="1" fill-rule="nonzero"/><path fill="#1e130a" d="M 1065 523.75 L 1067.5 523.75 L 1067.5 538.75 L 1061.25 540 C 1058.984375 538.203125 1058.984375 538.203125 1057.5 536.25 L 1062.5 536.25 L 1062.5 533.75 L 1065 533.75 Z M 1065 523.75 " fill-opacity="1" fill-rule="nonzero"/><path fill="#1b1007" d="M 463.75 933.75 L 466.25 933.75 C 464.546875 937.488281 462.5625 940.363281 459.84375 943.4375 L 457.800781 945.761719 L 456.25 947.5 L 453.75 946.25 C 455.738281 941.078125 459.507812 937.210938 463.75 933.75 M 940 663.75 C 943.085938 665.191406 945.058594 666.308594 947.5 668.75 L 947.5 672.5 L 940 673.75 Z M 1080 1111.25 C 1084.347656 1113.144531 1087.445312 1115.722656 1090.9375 1118.90625 L 1093.964844 1121.648438 L 1096.25 1123.75 L 1092.5 1125 C 1090.035156 1123.382812 1090.035156 1123.382812 1087.421875 1121.015625 L 1084.800781 1118.695312 C 1082.558594 1116.3125 1081.28125 1114.242188 1080 1111.25 M 975 622.5 C 977.242188 622.609375 979.480469 622.742188 981.71875 622.890625 L 985.496094 623.109375 L 988.75 623.75 L 991.25 627.5 C 988.773438 627.148438 986.300781 626.78125 983.828125 626.40625 L 979.652344 625.792969 L 976.25 625 Z M 978.75 547.5 L 982.5 547.5 L 982.5 550 C 980.039062 551.886719 980.039062 551.886719 976.875 553.90625 L 973.710938 555.949219 L 971.25 557.5 L 971.25 553.75 C 974.765625 550.390625 974.765625 550.390625 978.75 547.5 M 541.25 858.75 L 543.75 858.75 C 542.890625 861.015625 542.890625 861.015625 541.25 863.75 C 537.96875 865.9375 537.96875 865.9375 535 867.5 L 535 863.75 C 537.96875 861.015625 537.96875 861.015625 541.25 858.75 " fill-opacity="1" fill-rule="nonzero"/><path fill="#1c1108" d="M 566.25 838.75 L 568.75 838.75 C 567.890625 841.015625 567.890625 841.015625 566.25 843.75 C 562.96875 845.9375 562.96875 845.9375 560 847.5 L 560 843.75 C 562.5 841.25 562.5 841.25 566.25 838.75 " fill-opacity="1" fill-rule="nonzero"/><path fill="#1b1007" d="M 578.75 828.75 L 582.5 828.75 L 582.5 831.25 L 573.75 836.25 L 573.75 832.5 C 576.015625 830.390625 576.015625 830.390625 578.75 828.75 M 471.25 925 L 473.75 925 C 472.132812 928.605469 470.425781 931.089844 467.5 933.75 L 465 931.25 C 467.03125 929.113281 469.113281 927.03125 471.25 925 " fill-opacity="1" fill-rule="nonzero"/></svg>